{"title":"The.Contractor.2013.DVDRiP.x264.AC3 - BiTo","uid":8869990,"size":1510447813,"categoryP":"video","categoryS":"movies","magnet":"?xt=urn:btih:304a91f0a5570a565dc4db02ec3355d9c1601dae&amp;dn=The.Contractor.2013.DVDRiP.x264.AC3+-+BiTo&amp;tr=udp%3A%2F%2Ftracker.openbittorrent.com%3A80&amp;tr=udp%3A%2F%2Fopen.demonii.com%3A1337&amp;tr=udp%3A%2F%2Ftracker.coppersurfer.tk%3A6969&amp;tr=udp%3A%2F%2Fexodus.desync.com%3A6969","seeders":0,"leechers":1,"uploader":"TeX","files":3,"time":1378036258,"description":"[img]http://i.imgur.com/IG0gATF.jpg[/img]\n &lt;a href=&quot;\nhttp://www.imdb.com/title/tt2274172/&quot; rel=&quot;nofollow&quot; target=&quot;_NEW&quot;&gt;\nhttp://www.imdb.com/title/tt2274172/&lt;/a&gt;\n\nSource: DVDRETAIL\nSample: Yes\nAudio: 6Ch @ English\nCodec: x264\nContainer: Mkv\n\nVideo\nID : 1\nFormat : AVC\nFormat/Info : Advanced Video Codec\nFormat profile : &lt;a class=&quot;__cf_email__&quot; href=&quot;/cdn-cgi/l/email-protection&quot; data-cfemail=&quot;f1b9989699b1bdc5dfc0&quot;&gt;[email&amp;#160;protected]&lt;/a&gt;&lt;script cf-hash='f9e31' type=&quot;text/javascript&quot;&gt;\n/* &lt;![CDATA[ */!function(){try{var t=&quot;currentScript&quot;in document?document.currentScript:function(){for(var t=document.getElementsByTagName(&quot;script&quot;),e=t.length;e--;)if(t[e].getAttribute(&quot;cf-hash&quot;))return t[e]}();if(t&amp;&amp;t.previousSibling){var e,r,n,i,c=t.previousSibling,a=c.getAttribute(&quot;data-cfemail&quot;);if(a){for(e=&quot;&quot;,r=parseInt(a.substr(0,2),16),n=2;a.length-n;n+=2)i=parseInt(a.substr(n,2),16)^r,e+=String.fromCharCode(i);e=document.createTextNode(e),c.parentNode.replaceChild(e,c)}}}catch(u){}}();/* ]]&gt; */&lt;/script&gt;\nFormat settings, CABAC : Yes\nFormat settings, ReFrames : 4 frames\nCodec ID : V_MPEG4/ISO/AVC\nDuration : 1h 28mn\nBit rate : 1 864 Kbps\nWidth : 720 pixels\nHeight : 400 pixels\nDisplay aspect ratio : 16:9\nFrame rate mode : Constant\nFrame rate : 23.976 fps\nColor space : YUV\nChroma subsampling : 4:2:0\nBit depth : 8 bits\nScan type : Progressive\nBits/(Pixel*Frame) : 0.270\nStream size : 1.13 GiB (81%)\nWriting library : x264 core 133 r2334 a3ac64b\n\n\nAudio\nID : 2\nFormat : AC-3\nFormat/Info : Audio Coding 3\nMode extension : CM (complete main)\nFormat settings, Endianness : Big\nCodec ID : A_AC3\nDuration : 1h 28mn\nBit rate mode : Constant\nBit rate : 384 Kbps\nChannel(s) : 6 channels\nChannel positions : Front: L C R, Side: L R, LFE\nSampling rate : 48.0 KHz\nBit depth : 16 bits\nCompression mode : Lossy\nStream size : 243 MiB (17%)\nDefault : Yes\nForced : No\n\n[img]http://img405.imageshack.us/img405/4801/68ex.png[/img]\n[img]http://img69.imageshack.us/img69/6213/r9i0.png[/img]","torrent":{"xt":"urn:btih:304a91f0a5570a565dc4db02ec3355d9c1601dae","amp;dn":"The.Contractor.2013.DVDRiP.x264.AC3+-+BiTo","amp;tr":["udp%3A%2F%2Ftracker.openbittorrent.com%3A80","udp%3A%2F%2Fopen.demonii.com%3A1337","udp%3A%2F%2Ftracker.coppersurfer.tk%3A6969","udp%3A%2F%2Fexodus.desync.com%3A6969"],"infoHash":"304a91f0a5570a565dc4db02ec3355d9c1601dae","infoHashBuffer":{"type":"Buffer","data":[48,74,145,240,165,87,10,86,93,196,219,2,236,51,85,217,193,96,29,174]},"announce":[],"urlList":[]}}